<svg width="854" height="824" viewBox="0 0 854 824" fill="none" xmlns="http://www.w3.org/2000/svg">
<path d="M619.226 166.118C619.226 168.392 617.384 170.235 615.113 170.235C612.841 170.235 611 168.392 611 166.118C611 163.844 612.841 162 615.113 162C617.384 162 619.226 163.844 619.226 166.118Z" fill="url(#paint0_linear_782_1116)" fill-opacity="0.1"/>
<path d="M643.903 166.118C643.903 168.392 642.062 170.235 639.79 170.235C637.519 170.235 635.677 168.392 635.677 166.118C635.677 163.844 637.519 162 639.79 162C642.062 162 643.903 163.844 643.903 166.118Z" fill="url(#paint1_linear_782_1116)" fill-opacity="0.1"/>
<path d="M668.581 166.118C668.581 168.392 666.739 170.235 664.468 170.235C662.196 170.235 660.355 168.392 660.355 166.118C660.355 163.844 662.196 162 664.468 162C666.739 162 668.581 163.844 668.581 166.118Z" fill="url(#paint2_linear_782_1116)" fill-opacity="0.1"/>
<path d="M693.258 166.118C693.258 168.392 691.417 170.235 689.145 170.235C686.874 170.235 685.032 168.392 685.032 166.118C685.032 163.844 686.874 162 689.145 162C691.417 162 693.258 163.844 693.258 166.118Z" fill="url(#paint3_linear_782_1116)" fill-opacity="0.1"/>
<path d="M717.935 166.118C717.935 168.392 716.094 170.235 713.823 170.235C711.551 170.235 709.71 168.392 709.71 166.118C709.71 163.844 711.551 162 713.823 162C716.094 162 717.935 163.844 717.935 166.118Z" fill="url(#paint4_linear_782_1116)" fill-opacity="0.1"/>
<path d="M742.613 166.118C742.613 168.392 740.771 170.235 738.5 170.235C736.229 170.235 734.387 168.392 734.387 166.118C734.387 163.844 736.229 162 738.5 162C740.771 162 742.613 163.844 742.613 166.118Z" fill="url(#paint5_linear_782_1116)" fill-opacity="0.1"/>
<path d="M767.29 166.118C767.29 168.392 765.449 170.235 763.177 170.235C760.906 170.235 759.065 168.392 759.065 166.118C759.065 163.844 760.906 162 763.177 162C765.449 162 767.29 163.844 767.29 166.118Z" fill="url(#paint6_linear_782_1116)" fill-opacity="0.1"/>
<path d="M791.968 166.118C791.968 168.392 790.126 170.235 787.855 170.235C785.583 170.235 783.742 168.392 783.742 166.118C783.742 163.844 785.583 162 787.855 162C790.126 162 791.968 163.844 791.968 166.118Z" fill="url(#paint7_linear_782_1116)" fill-opacity="0.1"/>
<path d="M816.645 166.118C816.645 168.392 814.804 170.235 812.532 170.235C810.261 170.235 808.419 168.392 808.419 166.118C808.419 163.844 810.261 162 812.532 162C814.804 162 816.645 163.844 816.645 166.118Z" fill="url(#paint8_linear_782_1116)" fill-opacity="0.1"/>
<path d="M841.323 166.118C841.323 168.392 839.481 170.235 837.21 170.235C834.938 170.235 833.097 168.392 833.097 166.118C833.097 163.844 834.938 162 837.21 162C839.481 162 841.323 163.844 841.323 166.118Z" fill="url(#paint9_linear_782_1116)" fill-opacity="0.1"/>
<path d="M866 166.118C866 168.392 864.159 170.235 861.887 170.235C859.616 170.235 857.774 168.392 857.774 166.118C857.774 163.844 859.616 162 861.887 162C864.159 162 866 163.844 866 166.118Z" fill="url(#paint10_linear_782_1116)" fill-opacity="0.1"/>
<path d="M619.226 190.824C619.226 193.098 617.384 194.941 615.113 194.941C612.841 194.941 611 193.098 611 190.824C611 188.549 612.841 186.706 615.113 186.706C617.384 186.706 619.226 188.549 619.226 190.824Z" fill="url(#paint11_linear_782_1116)" fill-opacity="0.1"/>
<path d="M643.903 190.824C643.903 193.098 642.062 194.941 639.79 194.941C637.519 194.941 635.677 193.098 635.677 190.824C635.677 188.549 637.519 186.706 639.79 186.706C642.062 186.706 643.903 188.549 643.903 190.824Z" fill="url(#paint12_linear_782_1116)" fill-opacity="0.1"/>
<path d="M668.581 190.824C668.581 193.098 666.739 194.941 664.468 194.941C662.196 194.941 660.355 193.098 660.355 190.824C660.355 188.549 662.196 186.706 664.468 186.706C666.739 186.706 668.581 188.549 668.581 190.824Z" fill="url(#paint13_linear_782_1116)" fill-opacity="0.1"/>
<path d="M693.258 190.824C693.258 193.098 691.417 194.941 689.145 194.941C686.874 194.941 685.032 193.098 685.032 190.824C685.032 188.549 686.874 186.706 689.145 186.706C691.417 186.706 693.258 188.549 693.258 190.824Z" fill="url(#paint14_linear_782_1116)" fill-opacity="0.1"/>
<path d="M717.935 190.824C717.935 193.098 716.094 194.941 713.823 194.941C711.551 194.941 709.71 193.098 709.71 190.824C709.71 188.549 711.551 186.706 713.823 186.706C716.094 186.706 717.935 188.549 717.935 190.824Z" fill="url(#paint15_linear_782_1116)" fill-opacity="0.1"/>
<path d="M742.613 190.824C742.613 193.098 740.771 194.941 738.5 194.941C736.229 194.941 734.387 193.098 734.387 190.824C734.387 188.549 736.229 186.706 738.5 186.706C740.771 186.706 742.613 188.549 742.613 190.824Z" fill="url(#paint16_linear_782_1116)" fill-opacity="0.1"/>
<path d="M767.29 190.824C767.29 193.098 765.449 194.941 763.177 194.941C760.906 194.941 759.065 193.098 759.065 190.824C759.065 188.549 760.906 186.706 763.177 186.706C765.449 186.706 767.29 188.549 767.29 190.824Z" fill="url(#paint17_linear_782_1116)" fill-opacity="0.1"/>
<path d="M791.968 190.824C791.968 193.098 790.126 194.941 787.855 194.941C785.583 194.941 783.742 193.098 783.742 190.824C783.742 188.549 785.583 186.706 787.855 186.706C790.126 186.706 791.968 188.549 791.968 190.824Z" fill="url(#paint18_linear_782_1116)" fill-opacity="0.1"/>
<path d="M816.645 190.824C816.645 193.098 814.804 194.941 812.532 194.941C810.261 194.941 808.419 193.098 808.419 190.824C808.419 188.549 810.261 186.706 812.532 186.706C814.804 186.706 816.645 188.549 816.645 190.824Z" fill="url(#paint19_linear_782_1116)" fill-opacity="0.1"/>
<path d="M841.323 190.824C841.323 193.098 839.481 194.941 837.21 194.941C834.938 194.941 833.097 193.098 833.097 190.824C833.097 188.549 834.938 186.706 837.21 186.706C839.481 186.706 841.323 188.549 841.323 190.824Z" fill="url(#paint20_linear_782_1116)" fill-opacity="0.1"/>
<path d="M866 190.824C866 193.098 864.159 194.941 861.887 194.941C859.616 194.941 857.774 193.098 857.774 190.824C857.774 188.549 859.616 186.706 861.887 186.706C864.159 186.706 866 188.549 866 190.824Z" fill="url(#paint21_linear_782_1116)" fill-opacity="0.1"/>
<path d="M619.226 215.529C619.226 217.804 617.384 219.647 615.113 219.647C612.841 219.647 611 217.804 611 215.529C611 213.255 612.841 211.412 615.113 211.412C617.384 211.412 619.226 213.255 619.226 215.529Z" fill="url(#paint22_linear_782_1116)" fill-opacity="0.1"/>
<path d="M643.903 215.529C643.903 217.804 642.062 219.647 639.79 219.647C637.519 219.647 635.677 217.804 635.677 215.529C635.677 213.255 637.519 211.412 639.79 211.412C642.062 211.412 643.903 213.255 643.903 215.529Z" fill="url(#paint23_linear_782_1116)" fill-opacity="0.1"/>
<path d="M668.581 215.529C668.581 217.804 666.739 219.647 664.468 219.647C662.196 219.647 660.355 217.804 660.355 215.529C660.355 213.255 662.196 211.412 664.468 211.412C666.739 211.412 668.581 213.255 668.581 215.529Z" fill="url(#paint24_linear_782_1116)" fill-opacity="0.1"/>
<path d="M693.258 215.529C693.258 217.804 691.417 219.647 689.145 219.647C686.874 219.647 685.032 217.804 685.032 215.529C685.032 213.255 686.874 211.412 689.145 211.412C691.417 211.412 693.258 213.255 693.258 215.529Z" fill="url(#paint25_linear_782_1116)" fill-opacity="0.1"/>
<path d="M717.935 215.529C717.935 217.804 716.094 219.647 713.823 219.647C711.551 219.647 709.71 217.804 709.71 215.529C709.71 213.255 711.551 211.412 713.823 211.412C716.094 211.412 717.935 213.255 717.935 215.529Z" fill="url(#paint26_linear_782_1116)" fill-opacity="0.1"/>
<path d="M742.613 215.529C742.613 217.804 740.771 219.647 738.5 219.647C736.229 219.647 734.387 217.804 734.387 215.529C734.387 213.255 736.229 211.412 738.5 211.412C740.771 211.412 742.613 213.255 742.613 215.529Z" fill="url(#paint27_linear_782_1116)" fill-opacity="0.1"/>
<path d="M767.29 215.529C767.29 217.804 765.449 219.647 763.177 219.647C760.906 219.647 759.065 217.804 759.065 215.529C759.065 213.255 760.906 211.412 763.177 211.412C765.449 211.412 767.29 213.255 767.29 215.529Z" fill="url(#paint28_linear_782_1116)" fill-opacity="0.1"/>
<path d="M791.968 215.529C791.968 217.804 790.126 219.647 787.855 219.647C785.583 219.647 783.742 217.804 783.742 215.529C783.742 213.255 785.583 211.412 787.855 211.412C790.126 211.412 791.968 213.255 791.968 215.529Z" fill="url(#paint29_linear_782_1116)" fill-opacity="0.1"/>
<path d="M816.645 215.529C816.645 217.804 814.804 219.647 812.532 219.647C810.261 219.647 808.419 217.804 808.419 215.529C808.419 213.255 810.261 211.412 812.532 211.412C814.804 211.412 816.645 213.255 816.645 215.529Z" fill="url(#paint30_linear_782_1116)" fill-opacity="0.1"/>
<path d="M841.323 215.529C841.323 217.804 839.481 219.647 837.21 219.647C834.938 219.647 833.097 217.804 833.097 215.529C833.097 213.255 834.938 211.412 837.21 211.412C839.481 211.412 841.323 213.255 841.323 215.529Z" fill="url(#paint31_linear_782_1116)" fill-opacity="0.1"/>
<path d="M866 215.529C866 217.804 864.159 219.647 861.887 219.647C859.616 219.647 857.774 217.804 857.774 215.529C857.774 213.255 859.616 211.412 861.887 211.412C864.159 211.412 866 213.255 866 215.529Z" fill="url(#paint32_linear_782_1116)" fill-opacity="0.1"/>
<path d="M619.226 240.235C619.226 242.509 617.384 244.353 615.113 244.353C612.841 244.353 611 242.509 611 240.235C611 237.961 612.841 236.118 615.113 236.118C617.384 236.118 619.226 237.961 619.226 240.235Z" fill="url(#paint33_linear_782_1116)" fill-opacity="0.1"/>
<path d="M643.903 240.235C643.903 242.509 642.062 244.353 639.79 244.353C637.519 244.353 635.677 242.509 635.677 240.235C635.677 237.961 637.519 236.118 639.79 236.118C642.062 236.118 643.903 237.961 643.903 240.235Z" fill="url(#paint34_linear_782_1116)" fill-opacity="0.1"/>
<path d="M668.581 240.235C668.581 242.509 666.739 244.353 664.468 244.353C662.196 244.353 660.355 242.509 660.355 240.235C660.355 237.961 662.196 236.118 664.468 236.118C666.739 236.118 668.581 237.961 668.581 240.235Z" fill="url(#paint35_linear_782_1116)" fill-opacity="0.1"/>
<path d="M693.258 240.235C693.258 242.509 691.417 244.353 689.145 244.353C686.874 244.353 685.032 242.509 685.032 240.235C685.032 237.961 686.874 236.118 689.145 236.118C691.417 236.118 693.258 237.961 693.258 240.235Z" fill="url(#paint36_linear_782_1116)" fill-opacity="0.1"/>
<path d="M717.935 240.235C717.935 242.509 716.094 244.353 713.823 244.353C711.551 244.353 709.71 242.509 709.71 240.235C709.71 237.961 711.551 236.118 713.823 236.118C716.094 236.118 717.935 237.961 717.935 240.235Z" fill="url(#paint37_linear_782_1116)" fill-opacity="0.1"/>
<path d="M742.613 240.235C742.613 242.509 740.771 244.353 738.5 244.353C736.229 244.353 734.387 242.509 734.387 240.235C734.387 237.961 736.229 236.118 738.5 236.118C740.771 236.118 742.613 237.961 742.613 240.235Z" fill="url(#paint38_linear_782_1116)" fill-opacity="0.1"/>
<path d="M767.29 240.235C767.29 242.509 765.449 244.353 763.177 244.353C760.906 244.353 759.065 242.509 759.065 240.235C759.065 237.961 760.906 236.118 763.177 236.118C765.449 236.118 767.29 237.961 767.29 240.235Z" fill="url(#paint39_linear_782_1116)" fill-opacity="0.1"/>
<path d="M791.968 240.235C791.968 242.509 790.126 244.353 787.855 244.353C785.583 244.353 783.742 242.509 783.742 240.235C783.742 237.961 785.583 236.118 787.855 236.118C790.126 236.118 791.968 237.961 791.968 240.235Z" fill="url(#paint40_linear_782_1116)" fill-opacity="0.1"/>
<path d="M816.645 240.235C816.645 242.509 814.804 244.353 812.532 244.353C810.261 244.353 808.419 242.509 808.419 240.235C808.419 237.961 810.261 236.118 812.532 236.118C814.804 236.118 816.645 237.961 816.645 240.235Z" fill="url(#paint41_linear_782_1116)" fill-opacity="0.1"/>
<path d="M841.323 240.235C841.323 242.509 839.481 244.353 837.21 244.353C834.938 244.353 833.097 242.509 833.097 240.235C833.097 237.961 834.938 236.118 837.21 236.118C839.481 236.118 841.323 237.961 841.323 240.235Z" fill="url(#paint42_linear_782_1116)" fill-opacity="0.1"/>
<path d="M866 240.235C866 242.509 864.159 244.353 861.887 244.353C859.616 244.353 857.774 242.509 857.774 240.235C857.774 237.961 859.616 236.118 861.887 236.118C864.159 236.118 866 237.961 866 240.235Z" fill="url(#paint43_linear_782_1116)" fill-opacity="0.1"/>
<path d="M619.226 264.941C619.226 267.215 617.384 269.059 615.113 269.059C612.841 269.059 611 267.215 611 264.941C611 262.667 612.841 260.824 615.113 260.824C617.384 260.824 619.226 262.667 619.226 264.941Z" fill="url(#paint44_linear_782_1116)" fill-opacity="0.1"/>
<path d="M643.903 264.941C643.903 267.215 642.062 269.059 639.79 269.059C637.519 269.059 635.677 267.215 635.677 264.941C635.677 262.667 637.519 260.824 639.79 260.824C642.062 260.824 643.903 262.667 643.903 264.941Z" fill="url(#paint45_linear_782_1116)" fill-opacity="0.1"/>
<path d="M668.581 264.941C668.581 267.215 666.739 269.059 664.468 269.059C662.196 269.059 660.355 267.215 660.355 264.941C660.355 262.667 662.196 260.824 664.468 260.824C666.739 260.824 668.581 262.667 668.581 264.941Z" fill="url(#paint46_linear_782_1116)" fill-opacity="0.1"/>
<path d="M693.258 264.941C693.258 267.215 691.417 269.059 689.145 269.059C686.874 269.059 685.032 267.215 685.032 264.941C685.032 262.667 686.874 260.824 689.145 260.824C691.417 260.824 693.258 262.667 693.258 264.941Z" fill="url(#paint47_linear_782_1116)" fill-opacity="0.1"/>
<path d="M717.935 264.941C717.935 267.215 716.094 269.059 713.823 269.059C711.551 269.059 709.71 267.215 709.71 264.941C709.71 262.667 711.551 260.824 713.823 260.824C716.094 260.824 717.935 262.667 717.935 264.941Z" fill="url(#paint48_linear_782_1116)" fill-opacity="0.1"/>
<path d="M742.613 264.941C742.613 267.215 740.771 269.059 738.5 269.059C736.229 269.059 734.387 267.215 734.387 264.941C734.387 262.667 736.229 260.824 738.5 260.824C740.771 260.824 742.613 262.667 742.613 264.941Z" fill="url(#paint49_linear_782_1116)" fill-opacity="0.1"/>
<path d="M767.29 264.941C767.29 267.215 765.449 269.059 763.177 269.059C760.906 269.059 759.065 267.215 759.065 264.941C759.065 262.667 760.906 260.824 763.177 260.824C765.449 260.824 767.29 262.667 767.29 264.941Z" fill="url(#paint50_linear_782_1116)" fill-opacity="0.1"/>
<path d="M791.968 264.941C791.968 267.215 790.126 269.059 787.855 269.059C785.583 269.059 783.742 267.215 783.742 264.941C783.742 262.667 785.583 260.824 787.855 260.824C790.126 260.824 791.968 262.667 791.968 264.941Z" fill="url(#paint51_linear_782_1116)" fill-opacity="0.1"/>
<path d="M816.645 264.941C816.645 267.215 814.804 269.059 812.532 269.059C810.261 269.059 808.419 267.215 808.419 264.941C808.419 262.667 810.261 260.824 812.532 260.824C814.804 260.824 816.645 262.667 816.645 264.941Z" fill="url(#paint52_linear_782_1116)" fill-opacity="0.1"/>
<path d="M841.323 264.941C841.323 267.215 839.481 269.059 837.21 269.059C834.938 269.059 833.097 267.215 833.097 264.941C833.097 262.667 834.938 260.824 837.21 260.824C839.481 260.824 841.323 262.667 841.323 264.941Z" fill="url(#paint53_linear_782_1116)" fill-opacity="0.1"/>
<path d="M866 264.941C866 267.215 864.159 269.059 861.887 269.059C859.616 269.059 857.774 267.215 857.774 264.941C857.774 262.667 859.616 260.824 861.887 260.824C864.159 260.824 866 262.667 866 264.941Z" fill="url(#paint54_linear_782_1116)" fill-opacity="0.1"/>
<path d="M619.226 289.647C619.226 291.921 617.384 293.765 615.113 293.765C612.841 293.765 611 291.921 611 289.647C611 287.373 612.841 285.529 615.113 285.529C617.384 285.529 619.226 287.373 619.226 289.647Z" fill="url(#paint55_linear_782_1116)" fill-opacity="0.1"/>
<path d="M643.903 289.647C643.903 291.921 642.062 293.765 639.79 293.765C637.519 293.765 635.677 291.921 635.677 289.647C635.677 287.373 637.519 285.529 639.79 285.529C642.062 285.529 643.903 287.373 643.903 289.647Z" fill="url(#paint56_linear_782_1116)" fill-opacity="0.1"/>
<path d="M668.581 289.647C668.581 291.921 666.739 293.765 664.468 293.765C662.196 293.765 660.355 291.921 660.355 289.647C660.355 287.373 662.196 285.529 664.468 285.529C666.739 285.529 668.581 287.373 668.581 289.647Z" fill="url(#paint57_linear_782_1116)" fill-opacity="0.1"/>
<path d="M693.258 289.647C693.258 291.921 691.417 293.765 689.145 293.765C686.874 293.765 685.032 291.921 685.032 289.647C685.032 287.373 686.874 285.529 689.145 285.529C691.417 285.529 693.258 287.373 693.258 289.647Z" fill="url(#paint58_linear_782_1116)" fill-opacity="0.1"/>
<path d="M717.935 289.647C717.935 291.921 716.094 293.765 713.823 293.765C711.551 293.765 709.71 291.921 709.71 289.647C709.71 287.373 711.551 285.529 713.823 285.529C716.094 285.529 717.935 287.373 717.935 289.647Z" fill="url(#paint59_linear_782_1116)" fill-opacity="0.1"/>
<path d="M742.613 289.647C742.613 291.921 740.771 293.765 738.5 293.765C736.229 293.765 734.387 291.921 734.387 289.647C734.387 287.373 736.229 285.529 738.5 285.529C740.771 285.529 742.613 287.373 742.613 289.647Z" fill="url(#paint60_linear_782_1116)" fill-opacity="0.1"/>
<path d="M767.29 289.647C767.29 291.921 765.449 293.765 763.177 293.765C760.906 293.765 759.065 291.921 759.065 289.647C759.065 287.373 760.906 285.529 763.177 285.529C765.449 285.529 767.29 287.373 767.29 289.647Z" fill="url(#paint61_linear_782_1116)" fill-opacity="0.1"/>
<path d="M791.968 289.647C791.968 291.921 790.126 293.765 787.855 293.765C785.583 293.765 783.742 291.921 783.742 289.647C783.742 287.373 785.583 285.529 787.855 285.529C790.126 285.529 791.968 287.373 791.968 289.647Z" fill="url(#paint62_linear_782_1116)" fill-opacity="0.1"/>
<path d="M816.645 289.647C816.645 291.921 814.804 293.765 812.532 293.765C810.261 293.765 808.419 291.921 808.419 289.647C808.419 287.373 810.261 285.529 812.532 285.529C814.804 285.529 816.645 287.373 816.645 289.647Z" fill="url(#paint63_linear_782_1116)" fill-opacity="0.1"/>
<path d="M841.323 289.647C841.323 291.921 839.481 293.765 837.21 293.765C834.938 293.765 833.097 291.921 833.097 289.647C833.097 287.373 834.938 285.529 837.21 285.529C839.481 285.529 841.323 287.373 841.323 289.647Z" fill="url(#paint64_linear_782_1116)" fill-opacity="0.1"/>
<path d="M866 289.647C866 291.921 864.159 293.765 861.887 293.765C859.616 293.765 857.774 291.921 857.774 289.647C857.774 287.373 859.616 285.529 861.887 285.529C864.159 285.529 866 287.373 866 289.647Z" fill="url(#paint65_linear_782_1116)" fill-opacity="0.1"/>
<path d="M619.226 314.353C619.226 316.627 617.384 318.471 615.113 318.471C612.841 318.471 611 316.627 611 314.353C611 312.079 612.841 310.235 615.113 310.235C617.384 310.235 619.226 312.079 619.226 314.353Z" fill="url(#paint66_linear_782_1116)" fill-opacity="0.1"/>
<path d="M643.903 314.353C643.903 316.627 642.062 318.471 639.79 318.471C637.519 318.471 635.677 316.627 635.677 314.353C635.677 312.079 637.519 310.235 639.79 310.235C642.062 310.235 643.903 312.079 643.903 314.353Z" fill="url(#paint67_linear_782_1116)" fill-opacity="0.1"/>
<path d="M668.581 314.353C668.581 316.627 666.739 318.471 664.468 318.471C662.196 318.471 660.355 316.627 660.355 314.353C660.355 312.079 662.196 310.235 664.468 310.235C666.739 310.235 668.581 312.079 668.581 314.353Z" fill="url(#paint68_linear_782_1116)" fill-opacity="0.1"/>
<path d="M693.258 314.353C693.258 316.627 691.417 318.471 689.145 318.471C686.874 318.471 685.032 316.627 685.032 314.353C685.032 312.079 686.874 310.235 689.145 310.235C691.417 310.235 693.258 312.079 693.258 314.353Z" fill="url(#paint69_linear_782_1116)" fill-opacity="0.1"/>
<path d="M717.935 314.353C717.935 316.627 716.094 318.471 713.823 318.471C711.551 318.471 709.71 316.627 709.71 314.353C709.71 312.079 711.551 310.235 713.823 310.235C716.094 310.235 717.935 312.079 717.935 314.353Z" fill="url(#paint70_linear_782_1116)" fill-opacity="0.1"/>
<path d="M742.613 314.353C742.613 316.627 740.771 318.471 738.5 318.471C736.229 318.471 734.387 316.627 734.387 314.353C734.387 312.079 736.229 310.235 738.5 310.235C740.771 310.235 742.613 312.079 742.613 314.353Z" fill="url(#paint71_linear_782_1116)" fill-opacity="0.1"/>
<path d="M767.29 314.353C767.29 316.627 765.449 318.471 763.177 318.471C760.906 318.471 759.065 316.627 759.065 314.353C759.065 312.079 760.906 310.235 763.177 310.235C765.449 310.235 767.29 312.079 767.29 314.353Z" fill="url(#paint72_linear_782_1116)" fill-opacity="0.1"/>
<path d="M791.968 314.353C791.968 316.627 790.126 318.471 787.855 318.471C785.583 318.471 783.742 316.627 783.742 314.353C783.742 312.079 785.583 310.235 787.855 310.235C790.126 310.235 791.968 312.079 791.968 314.353Z" fill="url(#paint73_linear_782_1116)" fill-opacity="0.1"/>
<path d="M816.645 314.353C816.645 316.627 814.804 318.471 812.532 318.471C810.261 318.471 808.419 316.627 808.419 314.353C808.419 312.079 810.261 310.235 812.532 310.235C814.804 310.235 816.645 312.079 816.645 314.353Z" fill="url(#paint74_linear_782_1116)" fill-opacity="0.1"/>
<path d="M841.323 314.353C841.323 316.627 839.481 318.471 837.21 318.471C834.938 318.471 833.097 316.627 833.097 314.353C833.097 312.079 834.938 310.235 837.21 310.235C839.481 310.235 841.323 312.079 841.323 314.353Z" fill="url(#paint75_linear_782_1116)" fill-opacity="0.1"/>
<path d="M866 314.353C866 316.627 864.159 318.471 861.887 318.471C859.616 318.471 857.774 316.627 857.774 314.353C857.774 312.079 859.616 310.235 861.887 310.235C864.159 310.235 866 312.079 866 314.353Z" fill="url(#paint76_linear_782_1116)" fill-opacity="0.1"/>
<path d="M619.226 339.059C619.226 341.333 617.384 343.176 615.113 343.176C612.841 343.176 611 341.333 611 339.059C611 336.785 612.841 334.941 615.113 334.941C617.384 334.941 619.226 336.785 619.226 339.059Z" fill="url(#paint77_linear_782_1116)" fill-opacity="0.1"/>
<path d="M643.903 339.059C643.903 341.333 642.062 343.176 639.79 343.176C637.519 343.176 635.677 341.333 635.677 339.059C635.677 336.785 637.519 334.941 639.79 334.941C642.062 334.941 643.903 336.785 643.903 339.059Z" fill="url(#paint78_linear_782_1116)" fill-opacity="0.1"/>
<path d="M668.581 339.059C668.581 341.333 666.739 343.176 664.468 343.176C662.196 343.176 660.355 341.333 660.355 339.059C660.355 336.785 662.196 334.941 664.468 334.941C666.739 334.941 668.581 336.785 668.581 339.059Z" fill="url(#paint79_linear_782_1116)" fill-opacity="0.1"/>
<path d="M693.258 339.059C693.258 341.333 691.417 343.176 689.145 343.176C686.874 343.176 685.032 341.333 685.032 339.059C685.032 336.785 686.874 334.941 689.145 334.941C691.417 334.941 693.258 336.785 693.258 339.059Z" fill="url(#paint80_linear_782_1116)" fill-opacity="0.1"/>
<path d="M717.935 339.059C717.935 341.333 716.094 343.176 713.823 343.176C711.551 343.176 709.71 341.333 709.71 339.059C709.71 336.785 711.551 334.941 713.823 334.941C716.094 334.941 717.935 336.785 717.935 339.059Z" fill="url(#paint81_linear_782_1116)" fill-opacity="0.1"/>
<path d="M742.613 339.059C742.613 341.333 740.771 343.176 738.5 343.176C736.229 343.176 734.387 341.333 734.387 339.059C734.387 336.785 736.229 334.941 738.5 334.941C740.771 334.941 742.613 336.785 742.613 339.059Z" fill="url(#paint82_linear_782_1116)" fill-opacity="0.1"/>
<path d="M767.29 339.059C767.29 341.333 765.449 343.176 763.177 343.176C760.906 343.176 759.065 341.333 759.065 339.059C759.065 336.785 760.906 334.941 763.177 334.941C765.449 334.941 767.29 336.785 767.29 339.059Z" fill="url(#paint83_linear_782_1116)" fill-opacity="0.1"/>
<path d="M791.968 339.059C791.968 341.333 790.126 343.176 787.855 343.176C785.583 343.176 783.742 341.333 783.742 339.059C783.742 336.785 785.583 334.941 787.855 334.941C790.126 334.941 791.968 336.785 791.968 339.059Z" fill="url(#paint84_linear_782_1116)" fill-opacity="0.1"/>
<path d="M816.645 339.059C816.645 341.333 814.804 343.176 812.532 343.176C810.261 343.176 808.419 341.333 808.419 339.059C808.419 336.785 810.261 334.941 812.532 334.941C814.804 334.941 816.645 336.785 816.645 339.059Z" fill="url(#paint85_linear_782_1116)" fill-opacity="0.1"/>
<path d="M841.323 339.059C841.323 341.333 839.481 343.176 837.21 343.176C834.938 343.176 833.097 341.333 833.097 339.059C833.097 336.785 834.938 334.941 837.21 334.941C839.481 334.941 841.323 336.785 841.323 339.059Z" fill="url(#paint86_linear_782_1116)" fill-opacity="0.1"/>
<path d="M866 339.059C866 341.333 864.159 343.176 861.887 343.176C859.616 343.176 857.774 341.333 857.774 339.059C857.774 336.785 859.616 334.941 861.887 334.941C864.159 334.941 866 336.785 866 339.059Z" fill="url(#paint87_linear_782_1116)" fill-opacity="0.1"/>
<path d="M619.226 363.765C619.226 366.039 617.384 367.882 615.113 367.882C612.841 367.882 611 366.039 611 363.765C611 361.491 612.841 359.647 615.113 359.647C617.384 359.647 619.226 361.491 619.226 363.765Z" fill="url(#paint88_linear_782_1116)" fill-opacity="0.1"/>
<path d="M643.903 363.765C643.903 366.039 642.062 367.882 639.79 367.882C637.519 367.882 635.677 366.039 635.677 363.765C635.677 361.491 637.519 359.647 639.79 359.647C642.062 359.647 643.903 361.491 643.903 363.765Z" fill="url(#paint89_linear_782_1116)" fill-opacity="0.1"/>
<path d="M668.581 363.765C668.581 366.039 666.739 367.882 664.468 367.882C662.196 367.882 660.355 366.039 660.355 363.765C660.355 361.491 662.196 359.647 664.468 359.647C666.739 359.647 668.581 361.491 668.581 363.765Z" fill="url(#paint90_linear_782_1116)" fill-opacity="0.1"/>
<path d="M693.258 363.765C693.258 366.039 691.417 367.882 689.145 367.882C686.874 367.882 685.032 366.039 685.032 363.765C685.032 361.491 686.874 359.647 689.145 359.647C691.417 359.647 693.258 361.491 693.258 363.765Z" fill="url(#paint91_linear_782_1116)" fill-opacity="0.1"/>
<path d="M717.935 363.765C717.935 366.039 716.094 367.882 713.823 367.882C711.551 367.882 709.71 366.039 709.71 363.765C709.71 361.491 711.551 359.647 713.823 359.647C716.094 359.647 717.935 361.491 717.935 363.765Z" fill="url(#paint92_linear_782_1116)" fill-opacity="0.1"/>
<path d="M742.613 363.765C742.613 366.039 740.771 367.882 738.5 367.882C736.229 367.882 734.387 366.039 734.387 363.765C734.387 361.491 736.229 359.647 738.5 359.647C740.771 359.647 742.613 361.491 742.613 363.765Z" fill="url(#paint93_linear_782_1116)" fill-opacity="0.1"/>
<path d="M767.29 363.765C767.29 366.039 765.449 367.882 763.177 367.882C760.906 367.882 759.065 366.039 759.065 363.765C759.065 361.491 760.906 359.647 763.177 359.647C765.449 359.647 767.29 361.491 767.29 363.765Z" fill="url(#paint94_linear_782_1116)" fill-opacity="0.1"/>
<path d="M791.968 363.765C791.968 366.039 790.126 367.882 787.855 367.882C785.583 367.882 783.742 366.039 783.742 363.765C783.742 361.491 785.583 359.647 787.855 359.647C790.126 359.647 791.968 361.491 791.968 363.765Z" fill="url(#paint95_linear_782_1116)" fill-opacity="0.1"/>
<path d="M816.645 363.765C816.645 366.039 814.804 367.882 812.532 367.882C810.261 367.882 808.419 366.039 808.419 363.765C808.419 361.491 810.261 359.647 812.532 359.647C814.804 359.647 816.645 361.491 816.645 363.765Z" fill="url(#paint96_linear_782_1116)" fill-opacity="0.1"/>
<path d="M841.323 363.765C841.323 366.039 839.481 367.882 837.21 367.882C834.938 367.882 833.097 366.039 833.097 363.765C833.097 361.491 834.938 359.647 837.21 359.647C839.481 359.647 841.323 361.491 841.323 363.765Z" fill="url(#paint97_linear_782_1116)" fill-opacity="0.1"/>
<path d="M866 363.765C866 366.039 864.159 367.882 861.887 367.882C859.616 367.882 857.774 366.039 857.774 363.765C857.774 361.491 859.616 359.647 861.887 359.647C864.159 359.647 866 361.491 866 363.765Z" fill="url(#paint98_linear_782_1116)" fill-opacity="0.1"/>
<path d="M619.226 388.471C619.226 390.745 617.384 392.588 615.113 392.588C612.841 392.588 611 390.745 611 388.471C611 386.196 612.841 384.353 615.113 384.353C617.384 384.353 619.226 386.196 619.226 388.471Z" fill="url(#paint99_linear_782_1116)" fill-opacity="0.1"/>
<path d="M643.903 388.471C643.903 390.745 642.062 392.588 639.79 392.588C637.519 392.588 635.677 390.745 635.677 388.471C635.677 386.196 637.519 384.353 639.79 384.353C642.062 384.353 643.903 386.196 643.903 388.471Z" fill="url(#paint100_linear_782_1116)" fill-opacity="0.1"/>
<path d="M668.581 388.471C668.581 390.745 666.739 392.588 664.468 392.588C662.196 392.588 660.355 390.745 660.355 388.471C660.355 386.196 662.196 384.353 664.468 384.353C666.739 384.353 668.581 386.196 668.581 388.471Z" fill="url(#paint101_linear_782_1116)" fill-opacity="0.1"/>
<path d="M693.258 388.471C693.258 390.745 691.417 392.588 689.145 392.588C686.874 392.588 685.032 390.745 685.032 388.471C685.032 386.196 686.874 384.353 689.145 384.353C691.417 384.353 693.258 386.196 693.258 388.471Z" fill="url(#paint102_linear_782_1116)" fill-opacity="0.1"/>
<path d="M717.935 388.471C717.935 390.745 716.094 392.588 713.823 392.588C711.551 392.588 709.71 390.745 709.71 388.471C709.71 386.196 711.551 384.353 713.823 384.353C716.094 384.353 717.935 386.196 717.935 388.471Z" fill="url(#paint103_linear_782_1116)" fill-opacity="0.1"/>
<path d="M742.613 388.471C742.613 390.745 740.771 392.588 738.5 392.588C736.229 392.588 734.387 390.745 734.387 388.471C734.387 386.196 736.229 384.353 738.5 384.353C740.771 384.353 742.613 386.196 742.613 388.471Z" fill="url(#paint104_linear_782_1116)" fill-opacity="0.1"/>
<path d="M767.29 388.471C767.29 390.745 765.449 392.588 763.177 392.588C760.906 392.588 759.065 390.745 759.065 388.471C759.065 386.196 760.906 384.353 763.177 384.353C765.449 384.353 767.29 386.196 767.29 388.471Z" fill="url(#paint105_linear_782_1116)" fill-opacity="0.1"/>
<path d="M791.968 388.471C791.968 390.745 790.126 392.588 787.855 392.588C785.583 392.588 783.742 390.745 783.742 388.471C783.742 386.196 785.583 384.353 787.855 384.353C790.126 384.353 791.968 386.196 791.968 388.471Z" fill="url(#paint106_linear_782_1116)" fill-opacity="0.1"/>
<path d="M816.645 388.471C816.645 390.745 814.804 392.588 812.532 392.588C810.261 392.588 808.419 390.745 808.419 388.471C808.419 386.196 810.261 384.353 812.532 384.353C814.804 384.353 816.645 386.196 816.645 388.471Z" fill="url(#paint107_linear_782_1116)" fill-opacity="0.1"/>
<path d="M841.323 388.471C841.323 390.745 839.481 392.588 837.21 392.588C834.938 392.588 833.097 390.745 833.097 388.471C833.097 386.196 834.938 384.353 837.21 384.353C839.481 384.353 841.323 386.196 841.323 388.471Z" fill="url(#paint108_linear_782_1116)" fill-opacity="0.1"/>
<path d="M866 388.471C866 390.745 864.159 392.588 861.887 392.588C859.616 392.588 857.774 390.745 857.774 388.471C857.774 386.196 859.616 384.353 861.887 384.353C864.159 384.353 866 386.196 866 388.471Z" fill="url(#paint109_linear_782_1116)" fill-opacity="0.1"/>
<path d="M619.226 413.176C619.226 415.451 617.384 417.294 615.113 417.294C612.841 417.294 611 415.451 611 413.176C611 410.902 612.841 409.059 615.113 409.059C617.384 409.059 619.226 410.902 619.226 413.176Z" fill="url(#paint110_linear_782_1116)" fill-opacity="0.1"/>
<path d="M643.903 413.176C643.903 415.451 642.062 417.294 639.79 417.294C637.519 417.294 635.677 415.451 635.677 413.176C635.677 410.902 637.519 409.059 639.79 409.059C642.062 409.059 643.903 410.902 643.903 413.176Z" fill="url(#paint111_linear_782_1116)" fill-opacity="0.1"/>
<path d="M668.581 413.176C668.581 415.451 666.739 417.294 664.468 417.294C662.196 417.294 660.355 415.451 660.355 413.176C660.355 410.902 662.196 409.059 664.468 409.059C666.739 409.059 668.581 410.902 668.581 413.176Z" fill="url(#paint112_linear_782_1116)" fill-opacity="0.1"/>
<path d="M693.258 413.176C693.258 415.451 691.417 417.294 689.145 417.294C686.874 417.294 685.032 415.451 685.032 413.176C685.032 410.902 686.874 409.059 689.145 409.059C691.417 409.059 693.258 410.902 693.258 413.176Z" fill="url(#paint113_linear_782_1116)" fill-opacity="0.1"/>
<path d="M717.935 413.176C717.935 415.451 716.094 417.294 713.823 417.294C711.551 417.294 709.71 415.451 709.71 413.176C709.71 410.902 711.551 409.059 713.823 409.059C716.094 409.059 717.935 410.902 717.935 413.176Z" fill="url(#paint114_linear_782_1116)" fill-opacity="0.1"/>
<path d="M742.613 413.176C742.613 415.451 740.771 417.294 738.5 417.294C736.229 417.294 734.387 415.451 734.387 413.176C734.387 410.902 736.229 409.059 738.5 409.059C740.771 409.059 742.613 410.902 742.613 413.176Z" fill="url(#paint115_linear_782_1116)" fill-opacity="0.1"/>
<path d="M767.29 413.176C767.29 415.451 765.449 417.294 763.177 417.294C760.906 417.294 759.065 415.451 759.065 413.176C759.065 410.902 760.906 409.059 763.177 409.059C765.449 409.059 767.29 410.902 767.29 413.176Z" fill="url(#paint116_linear_782_1116)" fill-opacity="0.1"/>
<path d="M791.968 413.176C791.968 415.451 790.126 417.294 787.855 417.294C785.583 417.294 783.742 415.451 783.742 413.176C783.742 410.902 785.583 409.059 787.855 409.059C790.126 409.059 791.968 410.902 791.968 413.176Z" fill="url(#paint117_linear_782_1116)" fill-opacity="0.1"/>
<path d="M816.645 413.176C816.645 415.451 814.804 417.294 812.532 417.294C810.261 417.294 808.419 415.451 808.419 413.176C808.419 410.902 810.261 409.059 812.532 409.059C814.804 409.059 816.645 410.902 816.645 413.176Z" fill="url(#paint118_linear_782_1116)" fill-opacity="0.1"/>
<path d="M841.323 413.176C841.323 415.451 839.481 417.294 837.21 417.294C834.938 417.294 833.097 415.451 833.097 413.176C833.097 410.902 834.938 409.059 837.21 409.059C839.481 409.059 841.323 410.902 841.323 413.176Z" fill="url(#paint119_linear_782_1116)" fill-opacity="0.1"/>
<path d="M866 413.176C866 415.451 864.159 417.294 861.887 417.294C859.616 417.294 857.774 415.451 857.774 413.176C857.774 410.902 859.616 409.059 861.887 409.059C864.159 409.059 866 410.902 866 413.176Z" fill="url(#paint120_linear_782_1116)" fill-opacity="0.1"/>
<path d="M619.226 437.882C619.226 440.156 617.384 442 615.113 442C612.841 442 611 440.156 611 437.882C611 435.608 612.841 433.765 615.113 433.765C617.384 433.765 619.226 435.608 619.226 437.882Z" fill="url(#paint121_linear_782_1116)" fill-opacity="0.1"/>
<path d="M643.903 437.882C643.903 440.156 642.062 442 639.79 442C637.519 442 635.677 440.156 635.677 437.882C635.677 435.608 637.519 433.765 639.79 433.765C642.062 433.765 643.903 435.608 643.903 437.882Z" fill="url(#paint122_linear_782_1116)" fill-opacity="0.1"/>
<path d="M668.581 437.882C668.581 440.156 666.739 442 664.468 442C662.196 442 660.355 440.156 660.355 437.882C660.355 435.608 662.196 433.765 664.468 433.765C666.739 433.765 668.581 435.608 668.581 437.882Z" fill="url(#paint123_linear_782_1116)" fill-opacity="0.1"/>
<path d="M693.258 437.882C693.258 440.156 691.417 442 689.145 442C686.874 442 685.032 440.156 685.032 437.882C685.032 435.608 686.874 433.765 689.145 433.765C691.417 433.765 693.258 435.608 693.258 437.882Z" fill="url(#paint124_linear_782_1116)" fill-opacity="0.1"/>
<path d="M717.935 437.882C717.935 440.156 716.094 442 713.823 442C711.551 442 709.71 440.156 709.71 437.882C709.71 435.608 711.551 433.765 713.823 433.765C716.094 433.765 717.935 435.608 717.935 437.882Z" fill="url(#paint125_linear_782_1116)" fill-opacity="0.1"/>
<path d="M742.613 437.882C742.613 440.156 740.771 442 738.5 442C736.229 442 734.387 440.156 734.387 437.882C734.387 435.608 736.229 433.765 738.5 433.765C740.771 433.765 742.613 435.608 742.613 437.882Z" fill="url(#paint126_linear_782_1116)" fill-opacity="0.1"/>
<path d="M767.29 437.882C767.29 440.156 765.449 442 763.177 442C760.906 442 759.065 440.156 759.065 437.882C759.065 435.608 760.906 433.765 763.177 433.765C765.449 433.765 767.29 435.608 767.29 437.882Z" fill="url(#paint127_linear_782_1116)" fill-opacity="0.1"/>
<path d="M791.968 437.882C791.968 440.156 790.126 442 787.855 442C785.583 442 783.742 440.156 783.742 437.882C783.742 435.608 785.583 433.765 787.855 433.765C790.126 433.765 791.968 435.608 791.968 437.882Z" fill="url(#paint128_linear_782_1116)" fill-opacity="0.1"/>
<path d="M816.645 437.882C816.645 440.156 814.804 442 812.532 442C810.261 442 808.419 440.156 808.419 437.882C808.419 435.608 810.261 433.765 812.532 433.765C814.804 433.765 816.645 435.608 816.645 437.882Z" fill="url(#paint129_linear_782_1116)" fill-opacity="0.1"/>
<path d="M841.323 437.882C841.323 440.156 839.481 442 837.21 442C834.938 442 833.097 440.156 833.097 437.882C833.097 435.608 834.938 433.765 837.21 433.765C839.481 433.765 841.323 435.608 841.323 437.882Z" fill="url(#paint130_linear_782_1116)" fill-opacity="0.1"/>
<path d="M866 437.882C866 440.156 864.159 442 861.887 442C859.616 442 857.774 440.156 857.774 437.882C857.774 435.608 859.616 433.765 861.887 433.765C864.159 433.765 866 435.608 866 437.882Z" fill="url(#paint131_linear_782_1116)" fill-opacity="0.1"/>
<circle cx="324.5" cy="302.5" r="65.5" fill="url(#paint132_linear_782_1116)"/>
<circle cx="573.5" cy="294.5" r="95.5" fill="url(#paint133_linear_782_1116)"/>
<circle cx="734.5" cy="408.5" r="65.5" fill="url(#paint134_linear_782_1116)"/>
<defs>
<linearGradient id="paint0_linear_782_1116" x1="784.5" y1="209" x2="688.5" y2="341.5" gradientUnits="userSpaceOnUse">
<stop stop-color="#4089F8"/>
<stop offset="1" stop-color="#F2F2F2" stop-opacity="0"/>
</linearGradient>
<linearGradient id="paint1_linear_782_1116" x1="784.5" y1="209" x2="688.5" y2="341.5" gradientUnits="userSpaceOnUse">
<stop stop-color="#4089F8"/>
<stop offset="1" stop-color="#F2F2F2" stop-opacity="0"/>
</linearGradient>
<linearGradient id="paint2_linear_782_1116" x1="784.5" y1="209" x2="688.5" y2="341.5" gradientUnits="userSpaceOnUse">
<stop stop-color="#4089F8"/>
<stop offset="1" stop-color="#F2F2F2" stop-opacity="0"/>
</linearGradient>
<linearGradient id="paint3_linear_782_1116" x1="784.5" y1="209" x2="688.5" y2="341.5" gradientUnits="userSpaceOnUse">
<stop stop-color="#4089F8"/>
<stop offset="1" stop-color="#F2F2F2" stop-opacity="0"/>
</linearGradient>
<linearGradient id="paint4_linear_782_1116" x1="784.5" y1="209" x2="688.5" y2="341.5" gradientUnits="userSpaceOnUse">
<stop stop-color="#4089F8"/>
<stop offset="1" stop-color="#F2F2F2" stop-opacity="0"/>
</linearGradient>
<linearGradient id="paint5_linear_782_1116" x1="784.5" y1="209" x2="688.5" y2="341.5" gradientUnits="userSpaceOnUse">
<stop stop-color="#4089F8"/>
<stop offset="1" stop-color="#F2F2F2" stop-opacity="0"/>
</linearGradient>
<linearGradient id="paint6_linear_782_1116" x1="784.5" y1="209" x2="688.5" y2="341.5" gradientUnits="userSpaceOnUse">
<stop stop-color="#4089F8"/>
<stop offset="1" stop-color="#F2F2F2" stop-opacity="0"/>
</linearGradient>
<linearGradient id="paint7_linear_782_1116" x1="784.5" y1="209" x2="688.5" y2="341.5" gradientUnits="userSpaceOnUse">
<stop stop-color="#4089F8"/>
<stop offset="1" stop-color="#F2F2F2" stop-opacity="0"/>
</linearGradient>
<linearGradient id="paint8_linear_782_1116" x1="784.5" y1="209" x2="688.5" y2="341.5" gradientUnits="userSpaceOnUse">
<stop stop-color="#4089F8"/>
<stop offset="1" stop-color="#F2F2F2" stop-opacity="0"/>
</linearGradient>
<linearGradient id="paint9_linear_782_1116" x1="784.5" y1="209" x2="688.5" y2="341.5" gradientUnits="userSpaceOnUse">
<stop stop-color="#4089F8"/>
<stop offset="1" stop-color="#F2F2F2" stop-opacity="0"/>
</linearGradient>
<linearGradient id="paint10_linear_782_1116" x1="784.5" y1="209" x2="688.5" y2="341.5" gradientUnits="userSpaceOnUse">
<stop stop-color="#4089F8"/>
<stop offset="1" stop-color="#F2F2F2" stop-opacity="0"/>
</linearGradient>
<linearGradient id="paint11_linear_782_1116" x1="784.5" y1="209" x2="688.5" y2="341.5" gradientUnits="userSpaceOnUse">
<stop stop-color="#4089F8"/>
<stop offset="1" stop-color="#F2F2F2" stop-opacity="0"/>
</linearGradient>
<linearGradient id="paint12_linear_782_1116" x1="784.5" y1="209" x2="688.5" y2="341.5" gradientUnits="userSpaceOnUse">
<stop stop-color="#4089F8"/>
<stop offset="1" stop-color="#F2F2F2" stop-opacity="0"/>
</linearGradient>
<linearGradient id="paint13_linear_782_1116" x1="784.5" y1="209" x2="688.5" y2="341.5" gradientUnits="userSpaceOnUse">
<stop stop-color="#4089F8"/>
<stop offset="1" stop-color="#F2F2F2" stop-opacity="0"/>
</linearGradient>
<linearGradient id="paint14_linear_782_1116" x1="784.5" y1="209" x2="688.5" y2="341.5" gradientUnits="userSpaceOnUse">
<stop stop-color="#4089F8"/>
<stop offset="1" stop-color="#F2F2F2" stop-opacity="0"/>
</linearGradient>
<linearGradient id="paint15_linear_782_1116" x1="784.5" y1="209" x2="688.5" y2="341.5" gradientUnits="userSpaceOnUse">
<stop stop-color="#4089F8"/>
<stop offset="1" stop-color="#F2F2F2" stop-opacity="0"/>
</linearGradient>
<linearGradient id="paint16_linear_782_1116" x1="784.5" y1="209" x2="688.5" y2="341.5" gradientUnits="userSpaceOnUse">
<stop stop-color="#4089F8"/>
<stop offset="1" stop-color="#F2F2F2" stop-opacity="0"/>
</linearGradient>
<linearGradient id="paint17_linear_782_1116" x1="784.5" y1="209" x2="688.5" y2="341.5" gradientUnits="userSpaceOnUse">
<stop stop-color="#4089F8"/>
<stop offset="1" stop-color="#F2F2F2" stop-opacity="0"/>
</linearGradient>
<linearGradient id="paint18_linear_782_1116" x1="784.5" y1="209" x2="688.5" y2="341.5" gradientUnits="userSpaceOnUse">
<stop stop-color="#4089F8"/>
<stop offset="1" stop-color="#F2F2F2" stop-opacity="0"/>
</linearGradient>
<linearGradient id="paint19_linear_782_1116" x1="784.5" y1="209" x2="688.5" y2="341.5" gradientUnits="userSpaceOnUse">
<stop stop-color="#4089F8"/>
<stop offset="1" stop-color="#F2F2F2" stop-opacity="0"/>
</linearGradient>
<linearGradient id="paint20_linear_782_1116" x1="784.5" y1="209" x2="688.5" y2="341.5" gradientUnits="userSpaceOnUse">
<stop stop-color="#4089F8"/>
<stop offset="1" stop-color="#F2F2F2" stop-opacity="0"/>
</linearGradient>
<linearGradient id="paint21_linear_782_1116" x1="784.5" y1="209" x2="688.5" y2="341.5" gradientUnits="userSpaceOnUse">
<stop stop-color="#4089F8"/>
<stop offset="1" stop-color="#F2F2F2" stop-opacity="0"/>
</linearGradient>
<linearGradient id="paint22_linear_782_1116" x1="784.5" y1="209" x2="688.5" y2="341.5" gradientUnits="userSpaceOnUse">
<stop stop-color="#4089F8"/>
<stop offset="1" stop-color="#F2F2F2" stop-opacity="0"/>
</linearGradient>
<linearGradient id="paint23_linear_782_1116" x1="784.5" y1="209" x2="688.5" y2="341.5" gradientUnits="userSpaceOnUse">
<stop stop-color="#4089F8"/>
<stop offset="1" stop-color="#F2F2F2" stop-opacity="0"/>
</linearGradient>
<linearGradient id="paint24_linear_782_1116" x1="784.5" y1="209" x2="688.5" y2="341.5" gradientUnits="userSpaceOnUse">
<stop stop-color="#4089F8"/>
<stop offset="1" stop-color="#F2F2F2" stop-opacity="0"/>
</linearGradient>
<linearGradient id="paint25_linear_782_1116" x1="784.5" y1="209" x2="688.5" y2="341.5" gradientUnits="userSpaceOnUse">
<stop stop-color="#4089F8"/>
<stop offset="1" stop-color="#F2F2F2" stop-opacity="0"/>
</linearGradient>
<linearGradient id="paint26_linear_782_1116" x1="784.5" y1="209" x2="688.5" y2="341.5" gradientUnits="userSpaceOnUse">
<stop stop-color="#4089F8"/>
<stop offset="1" stop-color="#F2F2F2" stop-opacity="0"/>
</linearGradient>
<linearGradient id="paint27_linear_782_1116" x1="784.5" y1="209" x2="688.5" y2="341.5" gradientUnits="userSpaceOnUse">
<stop stop-color="#4089F8"/>
<stop offset="1" stop-color="#F2F2F2" stop-opacity="0"/>
</linearGradient>
<linearGradient id="paint28_linear_782_1116" x1="784.5" y1="209" x2="688.5" y2="341.5" gradientUnits="userSpaceOnUse">
<stop stop-color="#4089F8"/>
<stop offset="1" stop-color="#F2F2F2" stop-opacity="0"/>
</linearGradient>
<linearGradient id="paint29_linear_782_1116" x1="784.5" y1="209" x2="688.5" y2="341.5" gradientUnits="userSpaceOnUse">
<stop stop-color="#4089F8"/>
<stop offset="1" stop-color="#F2F2F2" stop-opacity="0"/>
</linearGradient>
<linearGradient id="paint30_linear_782_1116" x1="784.5" y1="209" x2="688.5" y2="341.5" gradientUnits="userSpaceOnUse">
<stop stop-color="#4089F8"/>
<stop offset="1" stop-color="#F2F2F2" stop-opacity="0"/>
</linearGradient>
<linearGradient id="paint31_linear_782_1116" x1="784.5" y1="209" x2="688.5" y2="341.5" gradientUnits="userSpaceOnUse">
<stop stop-color="#4089F8"/>
<stop offset="1" stop-color="#F2F2F2" stop-opacity="0"/>
</linearGradient>
<linearGradient id="paint32_linear_782_1116" x1="784.5" y1="209" x2="688.5" y2="341.5" gradientUnits="userSpaceOnUse">
<stop stop-color="#4089F8"/>
<stop offset="1" stop-color="#F2F2F2" stop-opacity="0"/>
</linearGradient>
<linearGradient id="paint33_linear_782_1116" x1="784.5" y1="209" x2="688.5" y2="341.5" gradientUnits="userSpaceOnUse">
<stop stop-color="#4089F8"/>
<stop offset="1" stop-color="#F2F2F2" stop-opacity="0"/>
</linearGradient>
<linearGradient id="paint34_linear_782_1116" x1="784.5" y1="209" x2="688.5" y2="341.5" gradientUnits="userSpaceOnUse">
<stop stop-color="#4089F8"/>
<stop offset="1" stop-color="#F2F2F2" stop-opacity="0"/>
</linearGradient>
<linearGradient id="paint35_linear_782_1116" x1="784.5" y1="209" x2="688.5" y2="341.5" gradientUnits="userSpaceOnUse">
<stop stop-color="#4089F8"/>
<stop offset="1" stop-color="#F2F2F2" stop-opacity="0"/>
</linearGradient>
<linearGradient id="paint36_linear_782_1116" x1="784.5" y1="209" x2="688.5" y2="341.5" gradientUnits="userSpaceOnUse">
<stop stop-color="#4089F8"/>
<stop offset="1" stop-color="#F2F2F2" stop-opacity="0"/>
</linearGradient>
<linearGradient id="paint37_linear_782_1116" x1="784.5" y1="209" x2="688.5" y2="341.5" gradientUnits="userSpaceOnUse">
<stop stop-color="#4089F8"/>
<stop offset="1" stop-color="#F2F2F2" stop-opacity="0"/>
</linearGradient>
<linearGradient id="paint38_linear_782_1116" x1="784.5" y1="209" x2="688.5" y2="341.5" gradientUnits="userSpaceOnUse">
<stop stop-color="#4089F8"/>
<stop offset="1" stop-color="#F2F2F2" stop-opacity="0"/>
</linearGradient>
<linearGradient id="paint39_linear_782_1116" x1="784.5" y1="209" x2="688.5" y2="341.5" gradientUnits="userSpaceOnUse">
<stop stop-color="#4089F8"/>
<stop offset="1" stop-color="#F2F2F2" stop-opacity="0"/>
</linearGradient>
<linearGradient id="paint40_linear_782_1116" x1="784.5" y1="209" x2="688.5" y2="341.5" gradientUnits="userSpaceOnUse">
<stop stop-color="#4089F8"/>
<stop offset="1" stop-color="#F2F2F2" stop-opacity="0"/>
</linearGradient>
<linearGradient id="paint41_linear_782_1116" x1="784.5" y1="209" x2="688.5" y2="341.5" gradientUnits="userSpaceOnUse">
<stop stop-color="#4089F8"/>
<stop offset="1" stop-color="#F2F2F2" stop-opacity="0"/>
</linearGradient>
<linearGradient id="paint42_linear_782_1116" x1="784.5" y1="209" x2="688.5" y2="341.5" gradientUnits="userSpaceOnUse">
<stop stop-color="#4089F8"/>
<stop offset="1" stop-color="#F2F2F2" stop-opacity="0"/>
</linearGradient>
<linearGradient id="paint43_linear_782_1116" x1="784.5" y1="209" x2="688.5" y2="341.5" gradientUnits="userSpaceOnUse">
<stop stop-color="#4089F8"/>
<stop offset="1" stop-color="#F2F2F2" stop-opacity="0"/>
</linearGradient>
<linearGradient id="paint44_linear_782_1116" x1="784.5" y1="209" x2="688.5" y2="341.5" gradientUnits="userSpaceOnUse">
<stop stop-color="#4089F8"/>
<stop offset="1" stop-color="#F2F2F2" stop-opacity="0"/>
</linearGradient>
<linearGradient id="paint45_linear_782_1116" x1="784.5" y1="209" x2="688.5" y2="341.5" gradientUnits="userSpaceOnUse">
<stop stop-color="#4089F8"/>
<stop offset="1" stop-color="#F2F2F2" stop-opacity="0"/>
</linearGradient>
<linearGradient id="paint46_linear_782_1116" x1="784.5" y1="209" x2="688.5" y2="341.5" gradientUnits="userSpaceOnUse">
<stop stop-color="#4089F8"/>
<stop offset="1" stop-color="#F2F2F2" stop-opacity="0"/>
</linearGradient>
<linearGradient id="paint47_linear_782_1116" x1="784.5" y1="209" x2="688.5" y2="341.5" gradientUnits="userSpaceOnUse">
<stop stop-color="#4089F8"/>
<stop offset="1" stop-color="#F2F2F2" stop-opacity="0"/>
</linearGradient>
<linearGradient id="paint48_linear_782_1116" x1="784.5" y1="209" x2="688.5" y2="341.5" gradientUnits="userSpaceOnUse">
<stop stop-color="#4089F8"/>
<stop offset="1" stop-color="#F2F2F2" stop-opacity="0"/>
</linearGradient>
<linearGradient id="paint49_linear_782_1116" x1="784.5" y1="209" x2="688.5" y2="341.5" gradientUnits="userSpaceOnUse">
<stop stop-color="#4089F8"/>
<stop offset="1" stop-color="#F2F2F2" stop-opacity="0"/>
</linearGradient>
<linearGradient id="paint50_linear_782_1116" x1="784.5" y1="209" x2="688.5" y2="341.5" gradientUnits="userSpaceOnUse">
<stop stop-color="#4089F8"/>
<stop offset="1" stop-color="#F2F2F2" stop-opacity="0"/>
</linearGradient>
<linearGradient id="paint51_linear_782_1116" x1="784.5" y1="209" x2="688.5" y2="341.5" gradientUnits="userSpaceOnUse">
<stop stop-color="#4089F8"/>
<stop offset="1" stop-color="#F2F2F2" stop-opacity="0"/>
</linearGradient>
<linearGradient id="paint52_linear_782_1116" x1="784.5" y1="209" x2="688.5" y2="341.5" gradientUnits="userSpaceOnUse">
<stop stop-color="#4089F8"/>
<stop offset="1" stop-color="#F2F2F2" stop-opacity="0"/>
</linearGradient>
<linearGradient id="paint53_linear_782_1116" x1="784.5" y1="209" x2="688.5" y2="341.5" gradientUnits="userSpaceOnUse">
<stop stop-color="#4089F8"/>
<stop offset="1" stop-color="#F2F2F2" stop-opacity="0"/>
</linearGradient>
<linearGradient id="paint54_linear_782_1116" x1="784.5" y1="209" x2="688.5" y2="341.5" gradientUnits="userSpaceOnUse">
<stop stop-color="#4089F8"/>
<stop offset="1" stop-color="#F2F2F2" stop-opacity="0"/>
</linearGradient>
<linearGradient id="paint55_linear_782_1116" x1="784.5" y1="209" x2="688.5" y2="341.5" gradientUnits="userSpaceOnUse">
<stop stop-color="#4089F8"/>
<stop offset="1" stop-color="#F2F2F2" stop-opacity="0"/>
</linearGradient>
<linearGradient id="paint56_linear_782_1116" x1="784.5" y1="209" x2="688.5" y2="341.5" gradientUnits="userSpaceOnUse">
<stop stop-color="#4089F8"/>
<stop offset="1" stop-color="#F2F2F2" stop-opacity="0"/>
</linearGradient>
<linearGradient id="paint57_linear_782_1116" x1="784.5" y1="209" x2="688.5" y2="341.5" gradientUnits="userSpaceOnUse">
<stop stop-color="#4089F8"/>
<stop offset="1" stop-color="#F2F2F2" stop-opacity="0"/>
</linearGradient>
<linearGradient id="paint58_linear_782_1116" x1="784.5" y1="209" x2="688.5" y2="341.5" gradientUnits="userSpaceOnUse">
<stop stop-color="#4089F8"/>
<stop offset="1" stop-color="#F2F2F2" stop-opacity="0"/>
</linearGradient>
<linearGradient id="paint59_linear_782_1116" x1="784.5" y1="209" x2="688.5" y2="341.5" gradientUnits="userSpaceOnUse">
<stop stop-color="#4089F8"/>
<stop offset="1" stop-color="#F2F2F2" stop-opacity="0"/>
</linearGradient>
<linearGradient id="paint60_linear_782_1116" x1="784.5" y1="209" x2="688.5" y2="341.5" gradientUnits="userSpaceOnUse">
<stop stop-color="#4089F8"/>
<stop offset="1" stop-color="#F2F2F2" stop-opacity="0"/>
</linearGradient>
<linearGradient id="paint61_linear_782_1116" x1="784.5" y1="209" x2="688.5" y2="341.5" gradientUnits="userSpaceOnUse">
<stop stop-color="#4089F8"/>
<stop offset="1" stop-color="#F2F2F2" stop-opacity="0"/>
</linearGradient>
<linearGradient id="paint62_linear_782_1116" x1="784.5" y1="209" x2="688.5" y2="341.5" gradientUnits="userSpaceOnUse">
<stop stop-color="#4089F8"/>
<stop offset="1" stop-color="#F2F2F2" stop-opacity="0"/>
</linearGradient>
<linearGradient id="paint63_linear_782_1116" x1="784.5" y1="209" x2="688.5" y2="341.5" gradientUnits="userSpaceOnUse">
<stop stop-color="#4089F8"/>
<stop offset="1" stop-color="#F2F2F2" stop-opacity="0"/>
</linearGradient>
<linearGradient id="paint64_linear_782_1116" x1="784.5" y1="209" x2="688.5" y2="341.5" gradientUnits="userSpaceOnUse">
<stop stop-color="#4089F8"/>
<stop offset="1" stop-color="#F2F2F2" stop-opacity="0"/>
</linearGradient>
<linearGradient id="paint65_linear_782_1116" x1="784.5" y1="209" x2="688.5" y2="341.5" gradientUnits="userSpaceOnUse">
<stop stop-color="#4089F8"/>
<stop offset="1" stop-color="#F2F2F2" stop-opacity="0"/>
</linearGradient>
<linearGradient id="paint66_linear_782_1116" x1="784.5" y1="209" x2="688.5" y2="341.5" gradientUnits="userSpaceOnUse">
<stop stop-color="#4089F8"/>
<stop offset="1" stop-color="#F2F2F2" stop-opacity="0"/>
</linearGradient>
<linearGradient id="paint67_linear_782_1116" x1="784.5" y1="209" x2="688.5" y2="341.5" gradientUnits="userSpaceOnUse">
<stop stop-color="#4089F8"/>
<stop offset="1" stop-color="#F2F2F2" stop-opacity="0"/>
</linearGradient>
<linearGradient id="paint68_linear_782_1116" x1="784.5" y1="209" x2="688.5" y2="341.5" gradientUnits="userSpaceOnUse">
<stop stop-color="#4089F8"/>
<stop offset="1" stop-color="#F2F2F2" stop-opacity="0"/>
</linearGradient>
<linearGradient id="paint69_linear_782_1116" x1="784.5" y1="209" x2="688.5" y2="341.5" gradientUnits="userSpaceOnUse">
<stop stop-color="#4089F8"/>
<stop offset="1" stop-color="#F2F2F2" stop-opacity="0"/>
</linearGradient>
<linearGradient id="paint70_linear_782_1116" x1="784.5" y1="209" x2="688.5" y2="341.5" gradientUnits="userSpaceOnUse">
<stop stop-color="#4089F8"/>
<stop offset="1" stop-color="#F2F2F2" stop-opacity="0"/>
</linearGradient>
<linearGradient id="paint71_linear_782_1116" x1="784.5" y1="209" x2="688.5" y2="341.5" gradientUnits="userSpaceOnUse">
<stop stop-color="#4089F8"/>
<stop offset="1" stop-color="#F2F2F2" stop-opacity="0"/>
</linearGradient>
<linearGradient id="paint72_linear_782_1116" x1="784.5" y1="209" x2="688.5" y2="341.5" gradientUnits="userSpaceOnUse">
<stop stop-color="#4089F8"/>
<stop offset="1" stop-color="#F2F2F2" stop-opacity="0"/>
</linearGradient>
<linearGradient id="paint73_linear_782_1116" x1="784.5" y1="209" x2="688.5" y2="341.5" gradientUnits="userSpaceOnUse">
<stop stop-color="#4089F8"/>
<stop offset="1" stop-color="#F2F2F2" stop-opacity="0"/>
</linearGradient>
<linearGradient id="paint74_linear_782_1116" x1="784.5" y1="209" x2="688.5" y2="341.5" gradientUnits="userSpaceOnUse">
<stop stop-color="#4089F8"/>
<stop offset="1" stop-color="#F2F2F2" stop-opacity="0"/>
</linearGradient>
<linearGradient id="paint75_linear_782_1116" x1="784.5" y1="209" x2="688.5" y2="341.5" gradientUnits="userSpaceOnUse">
<stop stop-color="#4089F8"/>
<stop offset="1" stop-color="#F2F2F2" stop-opacity="0"/>
</linearGradient>
<linearGradient id="paint76_linear_782_1116" x1="784.5" y1="209" x2="688.5" y2="341.5" gradientUnits="userSpaceOnUse">
<stop stop-color="#4089F8"/>
<stop offset="1" stop-color="#F2F2F2" stop-opacity="0"/>
</linearGradient>
<linearGradient id="paint77_linear_782_1116" x1="784.5" y1="209" x2="688.5" y2="341.5" gradientUnits="userSpaceOnUse">
<stop stop-color="#4089F8"/>
<stop offset="1" stop-color="#F2F2F2" stop-opacity="0"/>
</linearGradient>
<linearGradient id="paint78_linear_782_1116" x1="784.5" y1="209" x2="688.5" y2="341.5" gradientUnits="userSpaceOnUse">
<stop stop-color="#4089F8"/>
<stop offset="1" stop-color="#F2F2F2" stop-opacity="0"/>
</linearGradient>
<linearGradient id="paint79_linear_782_1116" x1="784.5" y1="209" x2="688.5" y2="341.5" gradientUnits="userSpaceOnUse">
<stop stop-color="#4089F8"/>
<stop offset="1" stop-color="#F2F2F2" stop-opacity="0"/>
</linearGradient>
<linearGradient id="paint80_linear_782_1116" x1="784.5" y1="209" x2="688.5" y2="341.5" gradientUnits="userSpaceOnUse">
<stop stop-color="#4089F8"/>
<stop offset="1" stop-color="#F2F2F2" stop-opacity="0"/>
</linearGradient>
<linearGradient id="paint81_linear_782_1116" x1="784.5" y1="209" x2="688.5" y2="341.5" gradientUnits="userSpaceOnUse">
<stop stop-color="#4089F8"/>
<stop offset="1" stop-color="#F2F2F2" stop-opacity="0"/>
</linearGradient>
<linearGradient id="paint82_linear_782_1116" x1="784.5" y1="209" x2="688.5" y2="341.5" gradientUnits="userSpaceOnUse">
<stop stop-color="#4089F8"/>
<stop offset="1" stop-color="#F2F2F2" stop-opacity="0"/>
</linearGradient>
<linearGradient id="paint83_linear_782_1116" x1="784.5" y1="209" x2="688.5" y2="341.5" gradientUnits="userSpaceOnUse">
<stop stop-color="#4089F8"/>
<stop offset="1" stop-color="#F2F2F2" stop-opacity="0"/>
</linearGradient>
<linearGradient id="paint84_linear_782_1116" x1="784.5" y1="209" x2="688.5" y2="341.5" gradientUnits="userSpaceOnUse">
<stop stop-color="#4089F8"/>
<stop offset="1" stop-color="#F2F2F2" stop-opacity="0"/>
</linearGradient>
<linearGradient id="paint85_linear_782_1116" x1="784.5" y1="209" x2="688.5" y2="341.5" gradientUnits="userSpaceOnUse">
<stop stop-color="#4089F8"/>
<stop offset="1" stop-color="#F2F2F2" stop-opacity="0"/>
</linearGradient>
<linearGradient id="paint86_linear_782_1116" x1="784.5" y1="209" x2="688.5" y2="341.5" gradientUnits="userSpaceOnUse">
<stop stop-color="#4089F8"/>
<stop offset="1" stop-color="#F2F2F2" stop-opacity="0"/>
</linearGradient>
<linearGradient id="paint87_linear_782_1116" x1="784.5" y1="209" x2="688.5" y2="341.5" gradientUnits="userSpaceOnUse">
<stop stop-color="#4089F8"/>
<stop offset="1" stop-color="#F2F2F2" stop-opacity="0"/>
</linearGradient>
<linearGradient id="paint88_linear_782_1116" x1="784.5" y1="209" x2="688.5" y2="341.5" gradientUnits="userSpaceOnUse">
<stop stop-color="#4089F8"/>
<stop offset="1" stop-color="#F2F2F2" stop-opacity="0"/>
</linearGradient>
<linearGradient id="paint89_linear_782_1116" x1="784.5" y1="209" x2="688.5" y2="341.5" gradientUnits="userSpaceOnUse">
<stop stop-color="#4089F8"/>
<stop offset="1" stop-color="#F2F2F2" stop-opacity="0"/>
</linearGradient>
<linearGradient id="paint90_linear_782_1116" x1="784.5" y1="209" x2="688.5" y2="341.5" gradientUnits="userSpaceOnUse">
<stop stop-color="#4089F8"/>
<stop offset="1" stop-color="#F2F2F2" stop-opacity="0"/>
</linearGradient>
<linearGradient id="paint91_linear_782_1116" x1="784.5" y1="209" x2="688.5" y2="341.5" gradientUnits="userSpaceOnUse">
<stop stop-color="#4089F8"/>
<stop offset="1" stop-color="#F2F2F2" stop-opacity="0"/>
</linearGradient>
<linearGradient id="paint92_linear_782_1116" x1="784.5" y1="209" x2="688.5" y2="341.5" gradientUnits="userSpaceOnUse">
<stop stop-color="#4089F8"/>
<stop offset="1" stop-color="#F2F2F2" stop-opacity="0"/>
</linearGradient>
<linearGradient id="paint93_linear_782_1116" x1="784.5" y1="209" x2="688.5" y2="341.5" gradientUnits="userSpaceOnUse">
<stop stop-color="#4089F8"/>
<stop offset="1" stop-color="#F2F2F2" stop-opacity="0"/>
</linearGradient>
<linearGradient id="paint94_linear_782_1116" x1="784.5" y1="209" x2="688.5" y2="341.5" gradientUnits="userSpaceOnUse">
<stop stop-color="#4089F8"/>
<stop offset="1" stop-color="#F2F2F2" stop-opacity="0"/>
</linearGradient>
<linearGradient id="paint95_linear_782_1116" x1="784.5" y1="209" x2="688.5" y2="341.5" gradientUnits="userSpaceOnUse">
<stop stop-color="#4089F8"/>
<stop offset="1" stop-color="#F2F2F2" stop-opacity="0"/>
</linearGradient>
<linearGradient id="paint96_linear_782_1116" x1="784.5" y1="209" x2="688.5" y2="341.5" gradientUnits="userSpaceOnUse">
<stop stop-color="#4089F8"/>
<stop offset="1" stop-color="#F2F2F2" stop-opacity="0"/>
</linearGradient>
<linearGradient id="paint97_linear_782_1116" x1="784.5" y1="209" x2="688.5" y2="341.5" gradientUnits="userSpaceOnUse">
<stop stop-color="#4089F8"/>
<stop offset="1" stop-color="#F2F2F2" stop-opacity="0"/>
</linearGradient>
<linearGradient id="paint98_linear_782_1116" x1="784.5" y1="209" x2="688.5" y2="341.5" gradientUnits="userSpaceOnUse">
<stop stop-color="#4089F8"/>
<stop offset="1" stop-color="#F2F2F2" stop-opacity="0"/>
</linearGradient>
<linearGradient id="paint99_linear_782_1116" x1="784.5" y1="209" x2="688.5" y2="341.5" gradientUnits="userSpaceOnUse">
<stop stop-color="#4089F8"/>
<stop offset="1" stop-color="#F2F2F2" stop-opacity="0"/>
</linearGradient>
<linearGradient id="paint100_linear_782_1116" x1="784.5" y1="209" x2="688.5" y2="341.5" gradientUnits="userSpaceOnUse">
<stop stop-color="#4089F8"/>
<stop offset="1" stop-color="#F2F2F2" stop-opacity="0"/>
</linearGradient>
<linearGradient id="paint101_linear_782_1116" x1="784.5" y1="209" x2="688.5" y2="341.5" gradientUnits="userSpaceOnUse">
<stop stop-color="#4089F8"/>
<stop offset="1" stop-color="#F2F2F2" stop-opacity="0"/>
</linearGradient>
<linearGradient id="paint102_linear_782_1116" x1="784.5" y1="209" x2="688.5" y2="341.5" gradientUnits="userSpaceOnUse">
<stop stop-color="#4089F8"/>
<stop offset="1" stop-color="#F2F2F2" stop-opacity="0"/>
</linearGradient>
<linearGradient id="paint103_linear_782_1116" x1="784.5" y1="209" x2="688.5" y2="341.5" gradientUnits="userSpaceOnUse">
<stop stop-color="#4089F8"/>
<stop offset="1" stop-color="#F2F2F2" stop-opacity="0"/>
</linearGradient>
<linearGradient id="paint104_linear_782_1116" x1="784.5" y1="209" x2="688.5" y2="341.5" gradientUnits="userSpaceOnUse">
<stop stop-color="#4089F8"/>
<stop offset="1" stop-color="#F2F2F2" stop-opacity="0"/>
</linearGradient>
<linearGradient id="paint105_linear_782_1116" x1="784.5" y1="209" x2="688.5" y2="341.5" gradientUnits="userSpaceOnUse">
<stop stop-color="#4089F8"/>
<stop offset="1" stop-color="#F2F2F2" stop-opacity="0"/>
</linearGradient>
<linearGradient id="paint106_linear_782_1116" x1="784.5" y1="209" x2="688.5" y2="341.5" gradientUnits="userSpaceOnUse">
<stop stop-color="#4089F8"/>
<stop offset="1" stop-color="#F2F2F2" stop-opacity="0"/>
</linearGradient>
<linearGradient id="paint107_linear_782_1116" x1="784.5" y1="209" x2="688.5" y2="341.5" gradientUnits="userSpaceOnUse">
<stop stop-color="#4089F8"/>
<stop offset="1" stop-color="#F2F2F2" stop-opacity="0"/>
</linearGradient>
<linearGradient id="paint108_linear_782_1116" x1="784.5" y1="209" x2="688.5" y2="341.5" gradientUnits="userSpaceOnUse">
<stop stop-color="#4089F8"/>
<stop offset="1" stop-color="#F2F2F2" stop-opacity="0"/>
</linearGradient>
<linearGradient id="paint109_linear_782_1116" x1="784.5" y1="209" x2="688.5" y2="341.5" gradientUnits="userSpaceOnUse">
<stop stop-color="#4089F8"/>
<stop offset="1" stop-color="#F2F2F2" stop-opacity="0"/>
</linearGradient>
<linearGradient id="paint110_linear_782_1116" x1="784.5" y1="209" x2="688.5" y2="341.5" gradientUnits="userSpaceOnUse">
<stop stop-color="#4089F8"/>
<stop offset="1" stop-color="#F2F2F2" stop-opacity="0"/>
</linearGradient>
<linearGradient id="paint111_linear_782_1116" x1="784.5" y1="209" x2="688.5" y2="341.5" gradientUnits="userSpaceOnUse">
<stop stop-color="#4089F8"/>
<stop offset="1" stop-color="#F2F2F2" stop-opacity="0"/>
</linearGradient>
<linearGradient id="paint112_linear_782_1116" x1="784.5" y1="209" x2="688.5" y2="341.5" gradientUnits="userSpaceOnUse">
<stop stop-color="#4089F8"/>
<stop offset="1" stop-color="#F2F2F2" stop-opacity="0"/>
</linearGradient>
<linearGradient id="paint113_linear_782_1116" x1="784.5" y1="209" x2="688.5" y2="341.5" gradientUnits="userSpaceOnUse">
<stop stop-color="#4089F8"/>
<stop offset="1" stop-color="#F2F2F2" stop-opacity="0"/>
</linearGradient>
<linearGradient id="paint114_linear_782_1116" x1="784.5" y1="209" x2="688.5" y2="341.5" gradientUnits="userSpaceOnUse">
<stop stop-color="#4089F8"/>
<stop offset="1" stop-color="#F2F2F2" stop-opacity="0"/>
</linearGradient>
<linearGradient id="paint115_linear_782_1116" x1="784.5" y1="209" x2="688.5" y2="341.5" gradientUnits="userSpaceOnUse">
<stop stop-color="#4089F8"/>
<stop offset="1" stop-color="#F2F2F2" stop-opacity="0"/>
</linearGradient>
<linearGradient id="paint116_linear_782_1116" x1="784.5" y1="209" x2="688.5" y2="341.5" gradientUnits="userSpaceOnUse">
<stop stop-color="#4089F8"/>
<stop offset="1" stop-color="#F2F2F2" stop-opacity="0"/>
</linearGradient>
<linearGradient id="paint117_linear_782_1116" x1="784.5" y1="209" x2="688.5" y2="341.5" gradientUnits="userSpaceOnUse">
<stop stop-color="#4089F8"/>
<stop offset="1" stop-color="#F2F2F2" stop-opacity="0"/>
</linearGradient>
<linearGradient id="paint118_linear_782_1116" x1="784.5" y1="209" x2="688.5" y2="341.5" gradientUnits="userSpaceOnUse">
<stop stop-color="#4089F8"/>
<stop offset="1" stop-color="#F2F2F2" stop-opacity="0"/>
</linearGradient>
<linearGradient id="paint119_linear_782_1116" x1="784.5" y1="209" x2="688.5" y2="341.5" gradientUnits="userSpaceOnUse">
<stop stop-color="#4089F8"/>
<stop offset="1" stop-color="#F2F2F2" stop-opacity="0"/>
</linearGradient>
<linearGradient id="paint120_linear_782_1116" x1="784.5" y1="209" x2="688.5" y2="341.5" gradientUnits="userSpaceOnUse">
<stop stop-color="#4089F8"/>
<stop offset="1" stop-color="#F2F2F2" stop-opacity="0"/>
</linearGradient>
<linearGradient id="paint121_linear_782_1116" x1="784.5" y1="209" x2="688.5" y2="341.5" gradientUnits="userSpaceOnUse">
<stop stop-color="#4089F8"/>
<stop offset="1" stop-color="#F2F2F2" stop-opacity="0"/>
</linearGradient>
<linearGradient id="paint122_linear_782_1116" x1="784.5" y1="209" x2="688.5" y2="341.5" gradientUnits="userSpaceOnUse">
<stop stop-color="#4089F8"/>
<stop offset="1" stop-color="#F2F2F2" stop-opacity="0"/>
</linearGradient>
<linearGradient id="paint123_linear_782_1116" x1="784.5" y1="209" x2="688.5" y2="341.5" gradientUnits="userSpaceOnUse">
<stop stop-color="#4089F8"/>
<stop offset="1" stop-color="#F2F2F2" stop-opacity="0"/>
</linearGradient>
<linearGradient id="paint124_linear_782_1116" x1="784.5" y1="209" x2="688.5" y2="341.5" gradientUnits="userSpaceOnUse">
<stop stop-color="#4089F8"/>
<stop offset="1" stop-color="#F2F2F2" stop-opacity="0"/>
</linearGradient>
<linearGradient id="paint125_linear_782_1116" x1="784.5" y1="209" x2="688.5" y2="341.5" gradientUnits="userSpaceOnUse">
<stop stop-color="#4089F8"/>
<stop offset="1" stop-color="#F2F2F2" stop-opacity="0"/>
</linearGradient>
<linearGradient id="paint126_linear_782_1116" x1="784.5" y1="209" x2="688.5" y2="341.5" gradientUnits="userSpaceOnUse">
<stop stop-color="#4089F8"/>
<stop offset="1" stop-color="#F2F2F2" stop-opacity="0"/>
</linearGradient>
<linearGradient id="paint127_linear_782_1116" x1="784.5" y1="209" x2="688.5" y2="341.5" gradientUnits="userSpaceOnUse">
<stop stop-color="#4089F8"/>
<stop offset="1" stop-color="#F2F2F2" stop-opacity="0"/>
</linearGradient>
<linearGradient id="paint128_linear_782_1116" x1="784.5" y1="209" x2="688.5" y2="341.5" gradientUnits="userSpaceOnUse">
<stop stop-color="#4089F8"/>
<stop offset="1" stop-color="#F2F2F2" stop-opacity="0"/>
</linearGradient>
<linearGradient id="paint129_linear_782_1116" x1="784.5" y1="209" x2="688.5" y2="341.5" gradientUnits="userSpaceOnUse">
<stop stop-color="#4089F8"/>
<stop offset="1" stop-color="#F2F2F2" stop-opacity="0"/>
</linearGradient>
<linearGradient id="paint130_linear_782_1116" x1="784.5" y1="209" x2="688.5" y2="341.5" gradientUnits="userSpaceOnUse">
<stop stop-color="#4089F8"/>
<stop offset="1" stop-color="#F2F2F2" stop-opacity="0"/>
</linearGradient>
<linearGradient id="paint131_linear_782_1116" x1="784.5" y1="209" x2="688.5" y2="341.5" gradientUnits="userSpaceOnUse">
<stop stop-color="#4089F8"/>
<stop offset="1" stop-color="#F2F2F2" stop-opacity="0"/>
</linearGradient>
<linearGradient id="paint132_linear_782_1116" x1="350.5" y1="250" x2="259" y2="302" gradientUnits="userSpaceOnUse">
<stop stop-color="#FFD166"/>
<stop offset="1" stop-color="#F5B318"/>
</linearGradient>
<linearGradient id="paint133_linear_782_1116" x1="611.408" y1="217.954" x2="478" y2="293.771" gradientUnits="userSpaceOnUse">
<stop stop-color="#FFD166"/>
<stop offset="1" stop-color="#F5B318"/>
</linearGradient>
<linearGradient id="paint134_linear_782_1116" x1="760.5" y1="356" x2="669" y2="408" gradientUnits="userSpaceOnUse">
<stop stop-color="#0089E4"/>
<stop offset="1" stop-color="#0328AD"/>
</linearGradient>
</defs>
</svg>
